<?xml version="1.0" standalone="no"?>
<!DOCTYPE svg PUBLIC "-//W3C//DTD SVG 20010904//EN"
 "http://www.w3.org/TR/2001/REC-SVG-20010904/DTD/svg10.dtd">
<svg version="1.0" xmlns="http://www.w3.org/2000/svg"
 width="175.000000pt" height="63.000000pt" viewBox="0 0 175.000000 63.000000"
 preserveAspectRatio="xMidYMid meet">

<g transform="translate(0.000000,63.000000) scale(0.100000,-0.100000)"
fill="#000000" stroke="none">
<path d="M701 110 c0 -27 2 -32 10 -20 8 11 12 12 16 3 8 -22 21 -14 19 12 -1
23 -16 37 -16 15 0 -17 -18 -11 -23 8 -3 9 -5 1 -6 -18z"/>
<path d="M764 110 c1 -15 8 -26 19 -28 14 -3 17 3 16 30 -2 30 -2 31 -6 6 -5
-34 -20 -37 -26 -5 -3 19 -4 19 -3 -3z"/>
<path d="M820 111 c0 -25 4 -31 21 -31 16 0 20 5 17 27 -2 17 -10 29 -20 31
-14 3 -18 -3 -18 -27z m30 9 c0 -5 -4 -10 -10 -10 -5 0 -10 5 -10 10 0 6 5 10
10 10 6 0 10 -4 10 -10z"/>
<path d="M904 126 c-9 -24 4 -48 23 -44 12 2 18 12 18 28 0 29 -32 41 -41 16z
m31 -26 c-5 -8 -11 -8 -17 -2 -6 6 -7 16 -3 22 5 8 11 8 17 2 6 -6 7 -16 3
-22z"/>
<path d="M961 108 c0 -18 3 -27 6 -20 2 6 12 12 21 12 15 0 15 2 2 10 -13 9
-13 11 0 20 12 8 11 10 -7 10 -19 0 -23 -5 -22 -32z"/>
<path d="M1043 113 c-9 -26 -8 -28 13 -28 19 0 23 4 18 20 -11 35 -21 37 -31
8z"/>
<path d="M1101 126 c-16 -19 -3 -46 23 -45 16 1 17 2 4 6 -10 2 -18 13 -18 23
0 10 8 21 18 23 14 4 14 5 1 6 -9 0 -22 -5 -28 -13z"/>
<path d="M1154 125 c-9 -23 3 -45 23 -44 17 1 17 2 1 6 -10 2 -18 11 -18 18 0
8 8 19 18 24 16 10 16 10 -1 11 -10 0 -20 -7 -23 -15z"/>
<path d="M1205 120 c-8 -26 7 -45 30 -36 21 8 16 50 -7 54 -10 2 -19 -5 -23
-18z m35 -16 c0 -8 -4 -14 -10 -14 -5 0 -10 9 -10 21 0 11 5 17 10 14 6 -3 10
-13 10 -21z"/>
<path d="M1262 115 c4 -39 42 -44 44 -5 1 23 1 23 -3 2 -5 -25 -28 -25 -28 1
0 8 -4 19 -9 24 -4 4 -6 -5 -4 -22z"/>
<path d="M1327 134 c-11 -11 -8 -54 3 -54 5 0 7 8 4 18 -5 16 -5 16 9 0 21
-26 27 -22 26 15 0 25 -2 28 -8 12 -7 -18 -8 -18 -17 -2 -6 10 -13 14 -17 11z"/>
<path d="M1388 128 c5 -7 12 -22 14 -33 3 -14 6 -11 9 13 5 27 2 32 -14 32
-14 0 -17 -3 -9 -12z"/>
<path d="M1441 117 c-6 -16 -11 -29 -11 -30 0 -1 11 -2 25 -2 29 0 29 1 10 35
l-13 25 -11 -28z"/>
<path d="M1491 110 c0 -33 1 -34 10 -11 6 16 6 28 -1 35 -7 7 -10 -1 -9 -24z"/>
<path d="M1531 128 c0 -9 -5 -18 -11 -20 -6 -2 -6 -9 0 -18 13 -21 22 -7 17
27 -2 15 -5 21 -6 11z"/>
<path d="M1554 125 c-9 -22 3 -45 23 -45 15 0 15 2 -3 15 -19 15 -19 15 0 30
18 13 18 15 3 15 -10 0 -20 -7 -23 -15z"/>
<path d="M1614 127 c3 -10 6 -25 6 -33 0 -8 5 -14 10 -14 6 0 10 8 10 18 0 10
5 23 12 30 8 8 9 12 1 12 -6 0 -14 -6 -16 -12 -4 -10 -8 -9 -17 2 -10 13 -11
12 -6 -3z"/>
</g>
</svg>
